<svg xmlns="http://www.w3.org/2000/svg" viewBox="0 0 640 260" role="img" aria-label="Battle weapon for relationship strategy">
  <defs>
    <linearGradient id="bg" x1="0" y1="0" x2="1" y2="1">
      <stop offset="0" stop-color="#241426"/>
      <stop offset=".52" stop-color="#08111f"/>
      <stop offset="1" stop-color="#20182e"/>
    </linearGradient>
    <radialGradient id="glow" cx=".72" cy=".32" r=".48">
      <stop offset="0" stop-color="#f48a9b" stop-opacity=".48"/>
      <stop offset="1" stop-color="#f48a9b" stop-opacity="0"/>
    </radialGradient>
  </defs>
  <rect width="640" height="260" fill="url(#bg)"/>
  <rect width="640" height="260" fill="url(#glow)"/>
  <g stroke="#f9d77e" stroke-opacity=".15" stroke-width="2">
    <path d="M60 58h520M60 130h520M60 202h520M108 32v196M208 32v196M308 32v196M408 32v196M508 32v196"/>
  </g>
  <g fill="none" stroke-linecap="round" stroke-linejoin="round">
    <path d="M178 176 318 44" stroke="#f9d77e" stroke-width="16"/>
    <path d="m318 44 58-10-22 54z" fill="#f9d77e" stroke="#ffe6a3" stroke-width="7"/>
    <path d="M462 76c-26-30-76-8-76 31 0 54 76 88 76 88s76-34 76-88c0-39-50-61-76-31z" fill="#07111f" stroke="#7c5cff" stroke-width="10" opacity=".92"/>
    <path d="M386 124h152" stroke="#f48a9b" stroke-width="8" opacity=".88"/>
  </g>
  <circle cx="136" cy="84" r="30" fill="#2f8e72" opacity=".8"/>
</svg>
