<svg xmlns="http://www.w3.org/2000/svg" viewBox="0 0 1600 1100" role="img" aria-label="Dark battlefield command map">
  <defs>
    <linearGradient id="sky" x1="0" y1="0" x2="0" y2="1">
      <stop offset="0" stop-color="#050913"/>
      <stop offset=".48" stop-color="#07111f"/>
      <stop offset="1" stop-color="#030711"/>
    </linearGradient>
    <radialGradient id="gold" cx=".28" cy=".16" r=".42">
      <stop offset="0" stop-color="#f9d77e" stop-opacity=".3"/>
      <stop offset="1" stop-color="#f9d77e" stop-opacity="0"/>
    </radialGradient>
    <radialGradient id="violet" cx=".78" cy=".18" r=".48">
      <stop offset="0" stop-color="#6b46c1" stop-opacity=".34"/>
      <stop offset="1" stop-color="#6b46c1" stop-opacity="0"/>
    </radialGradient>
  </defs>
  <rect width="1600" height="1100" fill="url(#sky)"/>
  <rect width="1600" height="1100" fill="url(#gold)"/>
  <rect width="1600" height="1100" fill="url(#violet)"/>
  <g stroke="#f9d77e" stroke-opacity=".08" stroke-width="2">
    <path d="M0 210h1600M0 350h1600M0 490h1600M0 630h1600M0 770h1600M0 910h1600"/>
    <path d="M140 0v1100M320 0v1100M500 0v1100M680 0v1100M860 0v1100M1040 0v1100M1220 0v1100M1400 0v1100"/>
  </g>
  <g fill="none" stroke-linecap="round" stroke-linejoin="round">
    <path d="M0 780c220-92 340-210 552-158 178 44 242 188 438 146 166-36 290-156 610-118" stroke="#2f8e72" stroke-opacity=".2" stroke-width="32"/>
    <path d="M74 840c260-130 390-226 610-126 188 86 290 52 470-64 110-70 224-94 372-74" stroke="#f9d77e" stroke-opacity=".18" stroke-width="18"/>
    <path d="M204 222c200 80 308 160 448 244 210 126 360 188 688 170" stroke="#6b46c1" stroke-opacity=".18" stroke-width="18"/>
  </g>
  <g opacity=".22">
    <path d="M96 690h146l-28 76H68z" fill="#f9d77e"/>
    <path d="M236 690v220" stroke="#f9d77e" stroke-width="12" stroke-linecap="round"/>
    <path d="M1276 506h172l-34 88h-172z" fill="#6b46c1"/>
    <path d="M1242 506v270" stroke="#f9d77e" stroke-width="12" stroke-linecap="round"/>
  </g>
  <g fill="#f9d77e" opacity=".28">
    <circle cx="330" cy="604" r="8"/>
    <circle cx="642" cy="682" r="8"/>
    <circle cx="992" cy="604" r="8"/>
    <circle cx="1218" cy="704" r="8"/>
  </g>
</svg>
